<svg xmlns="http://www.w3.org/2000/svg" viewBox="0 0 1024 1024" shape-rendering="auto"> <path d="M256 42.667c-70.187 0-128 57.813-128 128v682.667c0 70.187 57.813 128 128 128h512c70.187 0 128-57.813 128-128v-512c-0.002-11.781-4.779-22.446-12.5-30.167l-256-256c-7.72-7.721-18.385-12.498-30.166-12.5v0zM256 128h323.667l231 231v494.333c0 24.070-18.597 42.667-42.667 42.667h-512c-24.070 0-42.667-18.597-42.667-42.667v-682.667c0-24.070 18.597-42.667 42.667-42.667z"/> <path d="M596.667 42.083c-23.278 0.375-42.004 19.334-42.004 42.666 0 0.205 0.001 0.411 0.004 0.615v-0.031 256c0.002 23.563 19.103 42.664 42.666 42.667h256c0.179 0.003 0.391 0.004 0.603 0.004 23.567 0 42.671-19.104 42.671-42.671s-19.104-42.671-42.671-42.671c-0.212 0-0.424 0.002-0.635 0.005h-213.301v-213.333c0.003-0.174 0.004-0.379 0.004-0.584 0-23.567-19.104-42.671-42.671-42.671-0.234 0-0.468 0.002-0.702 0.006h0.035z"/> <path d="M341.333 512c-0.179-0.003-0.391-0.004-0.603-0.004-23.567 0-42.671 19.104-42.671 42.671s19.104 42.671 42.671 42.671c0.212 0 0.424-0.002 0.635-0.005h341.301c0.179 0.003 0.391 0.004 0.603 0.004 23.567 0 42.671-19.104 42.671-42.671s-19.104-42.671-42.671-42.671c-0.212 0-0.424 0.002-0.635 0.005h0.032z"/> <path d="M341.333 682.667c-0.179-0.003-0.391-0.004-0.603-0.004-23.567 0-42.671 19.104-42.671 42.671s19.104 42.671 42.671 42.671c0.212 0 0.424-0.002 0.635-0.005h341.301c0.179 0.003 0.391 0.004 0.603 0.004 23.567 0 42.671-19.104 42.671-42.671s-19.104-42.671-42.671-42.671c-0.212 0-0.424 0.002-0.635 0.005h0.032z"/> <path d="M341.333 341.333c-0.179-0.003-0.391-0.004-0.603-0.004-23.567 0-42.671 19.104-42.671 42.671s19.104 42.671 42.671 42.671c0.212 0 0.424-0.002 0.635-0.005h85.301c0.179 0.003 0.391 0.004 0.603 0.004 23.567 0 42.671-19.104 42.671-42.671s-19.104-42.671-42.671-42.671c-0.212 0-0.424 0.002-0.635 0.005h-42.635z"/> </svg>