<svg xmlns="http://www.w3.org/2000/svg" viewBox="0 0 1024 1024"> <path d="M384 810.667c-46.623 0-85.333 38.71-85.333 85.333s38.71 85.333 85.333 85.333c46.623 0 85.333-38.71 85.333-85.333s-38.71-85.333-85.333-85.333z"/> <path d="M853.333 810.667c-46.623 0-85.333 38.71-85.333 85.333s38.71 85.333 85.333 85.333c46.623 0 85.333-38.71 85.333-85.333s-38.71-85.333-85.333-85.333z"/> <path d="M42.667 0c-0.179-0.003-0.391-0.004-0.603-0.004-23.567 0-42.671 19.104-42.671 42.671s19.104 42.671 42.671 42.671c0.212 0 0.424-0.002 0.635-0.005h135.635l34.5 172.167c0.166 4.891 1.13 9.507 2.765 13.793l-0.098-0.293 70.333 351.333c12.054 60.501 66.315 104.182 128 103h413.083c61.711 1.183 115.976-42.544 128-103.083-0.062 0.216-0.033 0.132-0.004 0.048l0.090-0.3 68.248-357.998c0.481-2.404 0.756-5.168 0.756-7.996 0-23.567-19.104-42.671-42.671-42.671-0.001 0-0.001 0-0.002 0h-690.333l-35.833-179c-4.030-19.708-21.224-34.326-41.833-34.333h-0.001zM308.083 298.667h621.667l-58.5 307c-4.081 20.547-21.722 34.735-42.667 34.333-0.124-0.001-0.27-0.002-0.417-0.002s-0.293 0.001-0.439 0.002h-414.728c-0.124-0.001-0.27-0.002-0.417-0.002s-0.293 0.001-0.439 0.002h0.022c-20.945 0.401-38.586-13.786-42.667-34.333 0-0.013 0-0.028 0-0.043s0-0.030 0-0.045v0.002z"/> </svg>