<svg xmlns="http://www.w3.org/2000/svg" viewBox="0 0 1024 1024" shape-rendering="auto"> <path d="M512 42.667C253.3 42.667 42.667 253.3 42.667 512S253.3 981.333 512 981.333c258.7 0 469.333-210.633 469.333-469.333S770.7 42.667 512 42.667zM512 128c212.583 0 384 171.417 384 384S724.583 896 512 896 128 724.583 128 512s171.417-384 384-384z"/> <path d="M512 298.667c-117.315 0-213.333 96.018-213.333 213.333S394.685 725.333 512 725.333 725.333 629.315 725.333 512 629.315 298.667 512 298.667zM512 384c71.198 0 128 56.802 128 128s-56.802 128-128 128c-71.198 0-128-56.802-128-128s56.802-128 128-128z"/> <path d="M209.917 167.25c-23.562.006-42.66 19.108-42.66 42.671 0 11.987 4.942 22.819 12.9 30.57l180.926 180.926c7.778 8.091 18.692 13.118 30.78 13.118 23.567 0 42.671-19.104 42.671-42.671 0-12.088-5.027-23.003-13.104-30.767l-.014-.013-180.917-180.917c-7.76-7.971-18.594-12.916-30.583-12.917zM632.333 589.667c-23.562.006-42.66 19.108-42.66 42.671 0 11.987 4.942 22.819 12.9 30.57l180.926 180.926c7.778 8.091 18.692 13.117 30.78 13.117 23.567 0 42.671-19.104 42.671-42.671 0-12.088-5.026-23.002-13.103-30.766l-.014-.013-180.917-180.917c-7.76-7.971-18.594-12.916-30.583-12.917zM812.833 167.25a42.576 42.576 0 0 0-29.324 12.907L602.582 361.084c-8.091 7.778-13.118 18.692-13.118 30.781 0 23.567 19.104 42.671 42.671 42.671 12.088 0 23.003-5.027 30.767-13.104l.013-.014 180.917-180.917c7.979-7.762 12.929-18.602 12.929-30.598 0-23.567-19.104-42.671-42.671-42.671-.442 0-.883.007-1.322.02l.064-.002z"/> <path d="M782.5 197.583a42.576 42.576 0 0 0-29.324 12.907L602.583 361.083c-8.091 7.778-13.118 18.692-13.118 30.781 0 23.567 19.104 42.671 42.671 42.671 12.088 0 23.003-5.027 30.767-13.104l.013-.014 150.583-150.583c7.979-7.762 12.929-18.602 12.929-30.598 0-23.567-19.104-42.671-42.671-42.671-.442 0-.883.007-1.322.02l.064-.002zM390.417 589.667a42.576 42.576 0 0 0-29.324 12.907L180.166 783.501c-8.091 7.778-13.118 18.692-13.118 30.78 0 23.567 19.104 42.671 42.671 42.671 12.088 0 23.002-5.027 30.766-13.103l.013-.014 180.917-180.917c7.979-7.762 12.929-18.602 12.929-30.598 0-23.567-19.104-42.671-42.671-42.671-.442 0-.883.007-1.322.02l.064-.002z"/> </svg>