<svg xmlns="http://www.w3.org/2000/svg" viewBox="0 0 1024 1024" shape-rendering="auto"> <path d="M512 341.333c-93.751 0-170.667 76.915-170.667 170.667s76.915 170.667 170.667 170.667c93.751 0 170.667-76.915 170.667-170.667s-76.915-170.667-170.667-170.667zM512 426.667c47.634 0 85.333 37.7 85.333 85.333s-37.7 85.333-85.333 85.333c-47.634 0-85.333-37.7-85.333-85.333s37.7-85.333 85.333-85.333z"/> <path d="M512 0c-70.187 0-128 57.813-128 128v7.083c-0.042 10.44-6.624 18.994-15.75 23.75-1.976 0.604-3.606 1.226-5.185 1.942l0.268-0.109c-10.49 4.63-22.387 2.435-30.583-5.583l-2.167-2.167c-49.613-49.668-131.435-49.696-181.083-0.083-49.695 49.64-49.695 131.526 0 181.167l2.167 2.167c8.018 8.197 10.213 20.093 5.583 30.583-0.254 0.541-0.592 1.367-0.904 2.205l-0.096 0.295c-3.976 10.811-13.901 17.897-25.417 18.167h-2.833c-70.187 0-128 57.813-128 128s57.813 128 128 128h7.083c11.168 0.043 21.017 6.568 25.417 16.833 0.157 0.426 0.214 0.564 0.271 0.701l-0.104-0.283c4.63 10.49 2.435 22.387-5.583 30.583l-2.167 2.167c-49.668 49.613-49.696 131.435-0.083 181.083 0.020 0.020 0.064-0.020 0.083 0s-0.020 0.064 0 0.085c49.648 49.613 131.471 49.585 181.083-0.085l2.167-2.167c8.197-8.018 20.093-10.213 30.583-5.583 0.541 0.254 1.367 0.592 2.205 0.904l0.295 0.096c10.811 3.976 17.897 13.901 18.167 25.417v2.832c0 70.187 57.813 128 128 128s128-57.813 128-128v-7.083c0.043-11.168 6.568-21.017 16.833-25.417 0.426-0.157 0.564-0.213 0.702-0.27l-0.284 0.104c10.49-4.63 22.387-2.435 30.583 5.583l2.167 2.167c49.613 49.668 131.435 49.696 181.083 0.085v-0.085c49.609-49.618 49.677-131.371 0.085-181l-2.252-2.252c-8.018-8.197-10.213-20.093-5.583-30.583-0.047 0.146 0.009 0.008 0.065-0.131l0.102-0.287c4.398-10.262 14.247-16.786 25.415-16.83h3.667c70.187 0 128-57.813 128-128s-57.813-128-128-128h-7.083c-10.44-0.042-18.994-6.624-23.75-15.75-0.604-1.976-1.226-3.606-1.942-5.185l0.109 0.268c-4.63-10.49-2.435-22.387 5.583-30.583l2.167-2.167c49.668-49.613 49.696-131.435 0.085-181.083-49.64-49.695-131.526-49.695-181.167 0l-2.167 2.167c-8.197 8.018-20.093 10.213-30.583 5.583 0.145 0.047 0.007-0.009-0.131-0.065l-0.287-0.102c-10.266-4.399-16.789-14.248-16.834-25.417v-3.667c0-70.187-57.813-128-128-128zM512 85.333c24.070 0 42.667 18.597 42.667 42.667v3.833c0 0.025 0 0.054 0 0.083s0 0.059 0 0.088v-0.005c0.179 44.869 27.144 85.574 68.333 103.333 42.117 18.473 91.612 9.504 124.5-22.667 0.112-0.111 0.221-0.22 0.329-0.329l0.004-0.004 2.583-2.5c0-0.012 0-0.027 0-0.042s0-0.029 0-0.044v0.002c17.025-17.044 43.309-17.044 60.333 0 0.020 0.020 0.048 0.047 0.076 0.074l0.010 0.009c17.044 17.025 17.044 43.309 0 60.333-0.013 0-0.028 0-0.043 0s-0.030 0-0.045 0h0.002l-2.5 2.583c-0.112 0.111-0.221 0.22-0.329 0.329l-0.004 0.004c-32.231 32.95-41.278 82.581-22.667 124.75l-3.583-17.25v3.417c0 0.030 0 0.066 0 0.102 0 6.045 1.257 11.796 3.524 17.006l-0.107-0.275c17.708 41.316 58.549 68.321 103.5 68.5 0.025 0 0.054 0 0.083 0s0.058 0 0.088 0h7.245c24.070 0 42.667 18.597 42.667 42.667s-18.597 42.667-42.667 42.667h-3.833c-0.025 0-0.054 0-0.083 0s-0.058 0-0.088 0h0.005c-44.869 0.179-85.574 27.144-103.333 68.333-18.473 42.117-9.504 91.612 22.667 124.5 0.112 0.113 0.22 0.221 0.329 0.329l0.004 0.004 2.5 2.583c0.013 0 0.028 0 0.043 0s0.030 0 0.045 0h-0.002c17.044 17.025 17.044 43.309 0 60.333-0.029 0.029-0.057 0.057-0.084 0.084l-0.001 0.001c-17.025 17.044-43.309 17.044-60.333 0 0-0.013 0-0.028 0-0.043s0-0.030 0-0.045v0.002l-2.583-2.5c-0.112-0.113-0.22-0.221-0.329-0.329l-0.004-0.004c-32.888-32.171-82.383-41.139-124.5-22.667-41.19 17.759-68.154 58.464-68.333 103.333 0 0.025 0 0.054 0 0.083s0 0.058 0 0.088v-0.005 7.25c0 24.070-18.597 42.667-42.667 42.667s-42.667-18.597-42.667-42.667v-3.833c0.002-0.149 0.003-0.324 0.003-0.5s-0.001-0.351-0.003-0.527v0.027c-1.071-45.807-30.199-86.34-72.917-102.667-41.87-17.823-90.738-9.051-123.333 22.833-0.113 0.112-0.222 0.22-0.33 0.329l-0.003 0.003-2.583 2.5c0 0.013 0 0.028 0 0.043s0 0.030 0 0.045v-0.002c-17.025 17.044-43.309 17.044-60.333 0-0.036-0.038-0.064-0.065-0.091-0.093l0.008 0.008c-17.044-17.025-17.044-43.309 0-60.333 0.012 0 0.027 0 0.042 0s0.029 0 0.044 0h-0.002l2.5-2.583c0.113-0.112 0.222-0.22 0.33-0.329l0.003-0.003c32.171-32.888 41.139-82.383 22.667-124.5-17.759-41.19-58.464-68.154-103.333-68.333-0.025 0-0.054 0-0.083 0s-0.059 0-0.088 0h-7.245c-24.070 0-42.667-18.597-42.667-42.667s18.597-42.667 42.667-42.667h3.833c0.149 0.002 0.324 0.003 0.5 0.003s0.351-0.001 0.527-0.003h-0.027c45.807-1.071 86.34-30.199 102.667-72.916 17.823-41.87 9.051-90.738-22.833-123.333-0.112-0.113-0.22-0.222-0.329-0.33l-0.004-0.004-2.5-2.583c-0.012 0-0.027 0-0.042 0s-0.029 0-0.044 0h0.002c-17.044-17.025-17.044-43.309 0-60.333 0.028-0.028 0.055-0.055 0.082-0.082l0.001-0.001c17.025-17.044 43.309-17.044 60.333 0 0 0.012 0 0.027 0 0.042s0 0.029 0 0.044v-0.002l2.583 2.5c0.112 0.113 0.22 0.222 0.329 0.33l0.004 0.004c32.95 32.231 82.582 41.277 124.75 22.667l-17.25 3.583h3.417c0.030 0 0.066 0 0.103 0 6.045 0 11.796-1.257 17.006-3.524l-0.276 0.107c41.316-17.708 68.321-58.549 68.5-103.5 0-0.025 0-0.054 0-0.083s0-0.059 0-0.088v0.005-7.25c0-24.070 18.597-42.667 42.667-42.667z"/> </svg>