<svg xmlns="http://www.w3.org/2000/svg" viewBox="0 0 1024 1024"> <path d="M213.333 597.333c-117.315 0-213.333 96.018-213.333 213.333v85.333c-0.003 0.179-0.004 0.391-0.004 0.603 0 23.567 19.104 42.671 42.671 42.671s42.671-19.104 42.671-42.671c0-0.212-0.002-0.424-0.005-0.635v0.032-85.333c0-71.198 56.802-128 128-128h341.333c71.198 0 128 56.802 128 128v85.333c-0.003 0.179-0.004 0.391-0.004 0.603 0 23.567 19.104 42.671 42.671 42.671s42.671-19.104 42.671-42.671c0-0.212-0.002-0.424-0.005-0.635v0.032-85.333c0-117.315-96.018-213.333-213.333-213.333z"/> <path d="M384 85.333c-117.315 0-213.333 96.018-213.333 213.333s96.018 213.333 213.333 213.333c117.315 0 213.333-96.018 213.333-213.333s-96.018-213.333-213.333-213.333zM384 170.667c71.198 0 128 56.802 128 128s-56.802 128-128 128c-71.198 0-128-56.802-128-128s56.802-128 128-128z"/> <path d="M851.333 602.75c-22.907 0.838-41.159 19.609-41.159 42.644 0 19.953 13.695 36.707 32.198 41.376l0.295 0.063c56.686 14.636 95.956 65.288 96 123.833v85.333c-0.003 0.179-0.004 0.391-0.004 0.603 0 23.567 19.104 42.671 42.671 42.671s42.671-19.104 42.671-42.671c0-0.212-0.002-0.424-0.005-0.635v0.032-85.333c-0.073-97.008-66.073-182.165-160-206.417-3.387-0.966-7.276-1.522-11.296-1.522-0.482 0-0.962 0.008-1.441 0.024l0.070-0.002z"/> <path d="M680.583 90.75c-22.976 0.753-41.316 19.559-41.316 42.649 0 20.070 13.856 36.904 32.524 41.457l0.292 0.060c67.191 17.204 96.25 69.254 96.25 124s-29.059 106.796-96.25 124c-18.885 4.668-32.667 21.466-32.667 41.482 0 23.567 19.104 42.671 42.671 42.671 3.971 0 7.815-0.542 11.463-1.557l-0.3 0.071c103.922-26.608 160.417-117.985 160.417-206.667s-56.495-180.058-160.417-206.667c-3.386-0.966-7.276-1.522-11.295-1.522-0.482 0-0.963 0.008-1.441 0.024l0.070-0.002z"/> </svg>