<svg xmlns="http://www.w3.org/2000/svg" width="100" height="100" viewBox="0 0 100 100" fill="none"><path d="M50 3.125C40.729 3.125 31.6662 5.87417 23.9576 11.0249C16.2491 16.1756 10.241 23.4964 6.69315 32.0617C3.14529 40.627 2.21701 50.052 4.02569 59.1449C5.83437 68.2377 10.2988 76.59 16.8544 83.1456C23.41 89.7012 31.7623 94.1656 40.8551 95.9743C49.948 97.783 59.373 96.8547 67.9383 93.3069C76.5036 89.759 83.8244 83.7509 88.9751 76.0424C94.1258 68.3338 96.875 59.271 96.875 50C96.875 37.568 91.9364 25.6451 83.1456 16.8544C74.3549 8.0636 62.432 3.125 50 3.125ZM52.0094 31.9187C56.2704 31.9237 60.3554 33.6186 63.3684 36.6316C66.3814 39.6446 68.0763 43.7296 68.0812 47.9906H64.0625C64.0592 44.795 62.7882 41.7311 60.5286 39.4714C58.2689 37.2118 55.205 35.9408 52.0094 35.9375V31.9187ZM65.025 78.125C64.9031 78.125 52.8375 77.9187 37.3219 62.6781C22.0812 47.1687 21.875 35.0969 21.875 34.975C21.875 33.4719 31.25 21.875 33.3219 21.875C34.0406 21.875 34.6 22.3625 35.2125 23.0938C36.6875 24.85 43.2094 35.1437 42.9094 36.8594C42.7656 37.6656 42.0812 38.2781 40.1187 39.925C39.1517 40.6852 38.2468 41.5212 37.4125 42.425C37.812 44.0787 38.4058 45.6794 39.1812 47.1938C42.0704 53.1342 46.8707 57.9323 52.8125 60.8187C54.3268 61.5942 55.9275 62.1879 57.5812 62.5875C58.4851 61.7532 59.3211 60.8483 60.0812 59.8813C61.7281 57.9188 62.3406 57.2344 63.1469 57.0906C64.8625 56.7781 75.1562 63.3125 76.9125 64.7875C77.6437 65.4125 78.1312 65.9594 78.1312 66.6781C78.125 68.75 66.5281 78.125 65.025 78.125ZM74.1062 47.9906C74.0996 42.1322 71.7694 36.5156 67.6269 32.3731C63.4844 28.2305 57.8678 25.9004 52.0094 25.8938V21.875C58.9331 21.8833 65.5709 24.6374 70.4668 29.5332C75.3626 34.4291 78.1167 41.0669 78.125 47.9906H74.1062Z" fill="white"></path></svg>